<?xml version="1.0" standalone="no"?>
<!DOCTYPE svg PUBLIC "-//W3C//DTD SVG 20010904//EN"
 "http://www.w3.org/TR/2001/REC-SVG-20010904/DTD/svg10.dtd">
<svg version="1.0" xmlns="http://www.w3.org/2000/svg"
 width="256.000000pt" height="256.000000pt" viewBox="0 0 256.000000 256.000000"
 preserveAspectRatio="xMidYMid meet">
<metadata>
Created by potrace 1.14, written by Peter Selinger 2001-2017
</metadata>
<g transform="translate(0.000000,256.000000) scale(0.100000,-0.100000)"
fill="#000000" stroke="none">
<path d="M1357 2096 c-86 -46 -88 -46 -116 -30 -27 16 -30 16 -98 -20 -62 -32
-73 -43 -94 -87 -19 -42 -33 -56 -85 -85 -61 -34 -64 -35 -93 -19 -30 15 -33
14 -100 -22 -60 -33 -73 -45 -92 -86 -19 -40 -34 -54 -85 -83 -61 -34 -64 -35
-94 -19 -31 16 -33 15 -97 -17 -57 -29 -68 -40 -93 -88 -25 -50 -36 -59 -116
-104 -171 -95 -194 -125 -194 -261 0 -102 21 -151 81 -192 24 -16 244 -149
489 -294 543 -322 480 -306 705 -178 1003 570 1203 685 1224 703 41 37 61 93
61 180 0 61 -5 90 -21 123 -25 51 -13 44 -582 372 -494 286 -467 277 -600 207z
m643 -257 c256 -149 475 -280 488 -292 l22 -23 -170 -97 c-93 -53 -172 -97
-174 -97 -3 0 -16 10 -29 23 -14 12 -86 57 -161 100 -75 44 -136 81 -136 83 0
2 15 11 33 20 17 9 34 18 36 20 1 1 -7 32 -19 68 l-21 65 -285 162 c-156 88
-284 163 -284 164 0 7 111 67 138 75 15 5 43 7 62 4 20 -3 229 -119 500 -275z
m-612 -159 l343 -201 39 22 39 22 138 -79 c76 -43 151 -90 166 -104 l28 -25
-172 -98 -171 -99 -32 30 c-17 16 -88 62 -158 102 -71 40 -128 74 -128 76 0 2
14 10 30 19 36 18 36 22 9 95 l-21 57 -285 163 c-156 89 -282 165 -278 168 13
14 81 50 95 51 8 1 169 -89 358 -199z m-373 -210 l344 -200 45 22 45 21 128
-73 c144 -82 196 -117 191 -131 -2 -5 -77 -52 -168 -103 l-165 -94 -25 23
c-14 12 -86 58 -160 100 -152 88 -150 86 -133 92 7 3 22 12 33 21 l21 17 -23
62 -22 61 -284 162 c-156 89 -281 165 -277 168 12 13 81 50 93 51 7 1 168 -89
357 -199z m1519 -1 c13 -67 6 -144 -16 -189 -24 -46 -66 -76 -260 -184 l-68
-37 0 100 c0 55 -4 110 -9 123 -9 23 -1 29 163 121 94 53 174 97 177 97 4 0 9
-14 13 -31z m-1889 -209 l345 -201 43 25 43 25 134 -77 c172 -100 190 -112
190 -127 0 -7 -62 -48 -137 -91 -126 -72 -143 -79 -193 -79 -59 0 -51 -4 -710
390 -58 35 -109 61 -113 58 -5 -3 -3 -11 5 -18 32 -30 751 -448 783 -455 54
-12 95 2 239 84 74 42 138 76 144 76 14 0 22 -52 22 -151 l0 -88 -161 -91
c-229 -132 -164 -149 -729 188 -250 148 -467 282 -482 296 -36 35 -51 95 -46
178 7 98 26 122 149 195 57 34 110 62 116 62 7 1 168 -89 358 -199z m1520 -12
c3 -24 5 -79 3 -123 l-3 -80 -160 -92 c-88 -51 -163 -93 -166 -93 -4 0 -9 46
-11 103 -3 56 -8 109 -12 118 -6 14 25 35 161 113 92 53 171 96 175 96 4 0 10
-19 13 -42z m-367 -294 l2 -119 -163 -92 c-90 -51 -167 -93 -170 -93 -4 0 -7
42 -7 94 0 52 -4 106 -10 120 -9 24 -4 28 158 121 92 52 172 93 177 92 6 -2
11 -55 13 -123z"/>
</g>
</svg>
